HIERARCHY
ROOT hip
{
  OFFSET 0 0 0
  CHANNELS 6 Xposition Yposition Zposition Zrotation Yrotation Xrotation
  JOINT abdomen
  {
    OFFSET 0 20.6881 -0.73152
    CHANNELS 3 Zrotation Xrotation Yrotation
    JOINT chest
    {
      OFFSET 0 11.7043 -0.48768
      CHANNELS 3 Zrotation Xrotation Yrotation
      JOINT neck
      {
        OFFSET 0 22.1894 -2.19456
        CHANNELS 3 Zrotation Xrotation Yrotation
        JOINT head
        {
          OFFSET -0.24384 7.07133 1.2192
          CHANNELS 3 Zrotation Xrotation Yrotation
          JOINT leftEye
          {
            OFFSET 4.14528 8.04674 8.04672
            CHANNELS 3 Zrotation Xrotation Yrotation
            End Site
            {
              OFFSET 1 0 0
            }
          }
          JOINT rightEye
          {
            OFFSET -3.6576 8.04674 8.04672
            CHANNELS 3 Zrotation Xrotation Yrotation
            End Site
            {
              OFFSET 1 0 0
            }
          }
        }
      }
      JOINT rCollar
      {
        OFFSET -2.68224 19.2634 -4.8768
        CHANNELS 3 Zrotation Xrotation Yrotation
        JOINT rShldr
        {
          OFFSET -8.77824 -1.95073 1.46304
          CHANNELS 3 Zrotation Xrotation Yrotation
          JOINT rForeArm
          {
            OFFSET -28.1742 -1.7115 0.48768
            CHANNELS 3 Zrotation Xrotation Yrotation
            JOINT rHand
            {
              OFFSET -22.5879 0.773209 7.07136
              CHANNELS 3 Zrotation Xrotation Yrotation
              JOINT rThumb1
              {
                OFFSET -1.2192 -0.487915 3.41376
                CHANNELS 3 Zrotation Xrotation Yrotation
                JOINT rThumb2
                {
                  OFFSET -3.37035 -0.52449 3.41376
                  CHANNELS 3 Zrotation Xrotation Yrotation
                  End Site
                  {
                    OFFSET -1.78271 -1.18214 1.43049
                  }
                }
              }
              JOINT rIndex1
              {
                OFFSET -7.75947 0.938293 5.60832
                CHANNELS 3 Zrotation Xrotation Yrotation
                JOINT rIndex2
                {
                  OFFSET -2.54057 -0.884171 1.56538
                  CHANNELS 3 Zrotation Xrotation Yrotation
                  End Site
                  {
                    OFFSET -1.62519 -0.234802 1.16502
                  }
                }
              }
              JOINT rMid1
              {
                OFFSET -8.24714 1.18213 3.41376
                CHANNELS 3 Zrotation Xrotation Yrotation
                JOINT rMid2
                {
                  OFFSET -3.10165 -0.590103 1.0647
                  CHANNELS 3 Zrotation Xrotation Yrotation
                  End Site
                  {
                    OFFSET -2.48547 -0.328903 0.83742
                  }
                }
              }
              JOINT rRing1
              {
                OFFSET -8.82822 0.546677 1.51678
                CHANNELS 3 Zrotation Xrotation Yrotation
                JOINT rRing2
                {
                  OFFSET -2.60934 -0.819778 -0.0198488
                  CHANNELS 3 Zrotation Xrotation Yrotation
                  End Site
                  {
                    OFFSET -2.33842 -0.294052 0.168128
                  }
                }
              }
              JOINT rPinky1
              {
                OFFSET -8.27202 -0.0477905 -0.4584
                CHANNELS 3 Zrotation Xrotation Yrotation
                JOINT rPinky2
                {
                  OFFSET -1.82734 -0.647385 -0.700984
                  CHANNELS 3 Zrotation Xrotation Yrotation
                  End Site
                  {
                    OFFSET -1.69225 -0.51767 -0.607171
                  }
                }
              }
            }
          }
        }
      }
      JOINT lCollar
      {
        OFFSET 2.68224 19.2634 -4.8768
        CHANNELS 3 Zrotation Xrotation Yrotation
        JOINT lShldr
        {
          OFFSET 8.77824 -1.95073 1.46304
          CHANNELS 3 Zrotation Xrotation Yrotation
          JOINT lForeArm
          {
            OFFSET 28.1742 -1.7115 0.48768
            CHANNELS 3 Zrotation Xrotation Yrotation
            JOINT lHand
            {
              OFFSET 22.5879 0.773209 7.07136
              CHANNELS 3 Zrotation Xrotation Yrotation
              JOINT lThumb1
              {
                OFFSET 1.2192 -0.487915 3.41376
                CHANNELS 3 Zrotation Xrotation Yrotation
                JOINT lThumb2
                {
                  OFFSET 3.37035 -0.52449 3.41376
                  CHANNELS 3 Zrotation Xrotation Yrotation
                  End Site
                  {
                    OFFSET 1.78271 -1.18214 1.43049
                  }
                }
              }
              JOINT lIndex1
              {
                OFFSET 7.75947 0.938293 5.60832
                CHANNELS 3 Zrotation Xrotation Yrotation
                JOINT lIndex2
                {
                  OFFSET 2.54057 -0.884171 1.56538
                  CHANNELS 3 Zrotation Xrotation Yrotation
                  End Site
                  {
                    OFFSET 1.62519 -0.234802 1.16502
                  }
                }
              }
              JOINT lMid1
              {
                OFFSET 8.24714 1.18213 3.41376
                CHANNELS 3 Zrotation Xrotation Yrotation
                JOINT lMid2
                {
                  OFFSET 3.10165 -0.590103 1.0647
                  CHANNELS 3 Zrotation Xrotation Yrotation
                  End Site
                  {
                    OFFSET 2.48547 -0.328903 0.83742
                  }
                }
              }
              JOINT lRing1
              {
                OFFSET 8.82822 0.546677 1.51678
                CHANNELS 3 Zrotation Xrotation Yrotation
                JOINT lRing2
                {
                  OFFSET 2.60934 -0.819778 -0.0198488
                  CHANNELS 3 Zrotation Xrotation Yrotation
                  End Site
                  {
                    OFFSET 2.33842 -0.294052 0.168128
                  }
                }
              }
              JOINT lPinky1
              {
                OFFSET 8.27202 -0.0477905 -0.4584
                CHANNELS 3 Zrotation Xrotation Yrotation
                JOINT lPinky2
                {
                  OFFSET 1.82734 -0.647385 -0.700984
                  CHANNELS 3 Zrotation Xrotation Yrotation
                  End Site
                  {
                    OFFSET 1.69225 -0.51767 -0.607171
                  }
                }
              }
            }
          }
        }
      }
    }
  }
  JOINT rButtock
  {
    OFFSET -8.77824 4.35084 1.2192
    CHANNELS 3 Zrotation Xrotation Yrotation
    JOINT rThigh
    {
      OFFSET 0 -1.70687 -2.19456
      CHANNELS 3 Zrotation Xrotation Yrotation
      JOINT rShin
      {
        OFFSET 0 -36.8199 0.73152
        CHANNELS 3 Zrotation Xrotation Yrotation
        JOINT rFoot
        {
          OFFSET 0.73152 -45.1104 -5.12064
          CHANNELS 3 Zrotation Xrotation Yrotation
          End Site
          {
            OFFSET -1.1221 -3.69964 12.103
          }
        }
      }
    }
  }
  JOINT lButtock
  {
    OFFSET 8.77824 4.35084 1.2192
    CHANNELS 3 Zrotation Xrotation Yrotation
    JOINT lThigh
    {
      OFFSET 0 -1.70687 -2.19456
      CHANNELS 3 Zrotation Xrotation Yrotation
      JOINT lShin
      {
        OFFSET 0 -36.8199 0.73152
        CHANNELS 3 Zrotation Xrotation Yrotation
        JOINT lFoot
        {
          OFFSET -0.73152 -45.1104 -5.12064
          CHANNELS 3 Zrotation Xrotation Yrotation
          End Site
          {
            OFFSET 1.1221 -3.69964 12.103
          }
        }
      }
    }
  }
}
MOTION
Frames:	4
Frame Time:	0.03333
0.4361754283308983 -6.497657299041748 -0.9753464721143246 12.145247459411621 66.50918579101562 31.51755714416504 -4.772633075714111 20.123729705810547 -5.467963218688965 5.209980487823486 -13.564277648925781 -1.0778712034225464 -9.419329643249512 18.278671264648438 -13.56865119934082 18.090587615966797 -33.39858627319336 -23.340627670288086 0.005104836076498032 -0.29888901114463806 0.270670086145401 0.34500476717948914 -0.1793828308582306 -0.1111345961689949 -0.012371757999062538 0.03501162305474281 0.036333631724119186 38.904747009277344 6.7690019607543945 18.48195457458496 -27.30616569519043 -40.631168365478516 85.93279266357422 -0.2532358467578888 -25.593942642211914 -3.477431058883667 0.19417662918567657 0.17870588600635529 -0.24840997159481049 0.7209156155586243 0.49148309230804443 0.3563166856765747 0.4846871793270111 -0.2598768174648285 0.08047480136156082 7.672605514526367 5.703993320465088 0.19746342301368713 -0.15969814360141754 0.42075255513191223 -0.020595751702785492 2.8644933700561523 1.2984669208526611 0.19398966431617737 0.07491821050643921 0.46840575337409973 -0.006310831289738417 10.375592231750488 0.6535983681678772 -0.054862022399902344 -0.007245034445077181 -0.1912454217672348 -0.0714595764875412 2.3818764686584473 -1.0624637603759766 -0.28168320655822754 0.375039279460907 -0.1781340092420578 -0.22214649617671967 -19.449338912963867 55.878116607666016 -61.560096740722656 27.384822845458984 -42.46791458129883 -87.95154571533203 0.3867206573486328 -15.873175621032715 2.2001328468322754 -0.10774358361959457 0.42326611280441284 -0.28639528155326843 0.1537630707025528 -0.10224398225545883 -0.1031171977519989 0.12599918246269226 0.09019506722688675 -0.04270530864596367 -8.059041023254395 4.913772106170654 -0.5854628086090088 -0.23028738796710968 -0.1227530986070633 -0.2328464388847351 -2.994185447692871 0.74716717004776 -0.19035939872264862 0.27341851592063904 0.3506599962711334 -0.049980588257312775 -10.3966064453125 0.7134959697723389 -0.3591447174549103 0.05859222635626793 -0.10324488580226898 0.17520643770694733 -2.165543794631958 -1.0236722230911255 0.1539100855588913 -0.3285974860191345 -0.05138825252652168 -0.2711707651615143 -85.37739562988281 -64.57716369628906 -71.17298889160156 -130.36331176757812 88.00697326660156 131.61050415039062 -5.611032962799072 -14.15019702911377 -16.24137306213379 -0.26498010754585266 0.46715247631073 -0.12407292425632477 46.66472244262695 -38.36430358886719 29.264074325561523 1.618950366973877 67.72808074951172 -4.361419200897217 2.1732468605041504 -7.266616344451904 17.41046142578125
0.4258397966623306 -6.618723273277283 -1.1001000180840492 11.799052238464355 65.52767944335938 32.497779846191406 -4.816835880279541 19.355466842651367 -5.234745025634766 4.905337333679199 -13.290579795837402 -0.938268780708313 -9.47399616241455 18.052818298339844 -13.461549758911133 17.467132568359375 -33.501502990722656 -22.778785705566406 -0.07580799609422684 -0.40176644921302795 0.2947412431240082 0.48165082931518555 -0.1696203202009201 -0.19829192757606506 -0.05577388405799866 0.04513176158070564 -0.028955211862921715 38.65547561645508 8.231746673583984 20.03065299987793 -27.22662925720215 -40.3880500793457 85.4401626586914 -0.20523680746555328 -25.332887649536133 -3.492387056350708 0.19476571679115295 0.37756624817848206 -0.23434095084667206 0.6024435758590698 0.6249440908432007 0.22795413434505463 0.4716789722442627 -0.1607765406370163 0.13760454952716827 7.627552032470703 5.599887371063232 0.17402297258377075 -0.216042160987854 0.40866437554359436 -0.11034947633743286 3.07692289352417 1.3340870141983032 0.09531019628047943 0.08820926398038864 0.3609027564525604 -0.04261380434036255 10.343022346496582 0.6756798624992371 -0.15809743106365204 -0.1096278578042984 -0.21006157994270325 0.02434280514717102 2.2311060428619385 -1.0983014106750488 -0.3554741442203522 0.3759980797767639 -0.09772005677223206 -0.10563160479068756 -22.36202049255371 56.02333068847656 -58.26539611816406 27.41202735900879 -42.384586334228516 -87.74461364746094 0.22937949001789093 -16.008420944213867 2.067086935043335 -0.21292108297348022 0.4855625033378601 -0.21757541596889496 0.1558300405740738 -0.08145113289356232 -0.17998909950256348 0.013597365468740463 0.08037121593952179 0.001745522255077958 -7.992405414581299 5.142374515533447 -0.478885680437088 -0.3156758248806 -0.09295203536748886 -0.2642742097377777 -3.11006236076355 0.6717899441719055 -0.2260103076696396 0.2405036985874176 0.3321830928325653 -0.06335996836423874 -10.479911804199219 0.7632930278778076 -0.45846986770629883 0.07896005362272263 -0.04556126147508621 0.17739304900169373 -2.186000347137451 -0.9626588821411133 0.26289841532707214 -0.3969164490699768 -0.04065614566206932 -0.17099925875663757 -82.018310546875 -65.3517074584961 -69.45064544677734 -101.66349792480469 88.49832153320312 103.00811767578125 -5.88672399520874 -13.364750862121582 -16.500680923461914 -0.37442684173583984 0.5023757815361023 0.015561544336378574 43.19889831542969 -37.38589096069336 25.420562744140625 1.5248897075653076 66.39757537841797 -4.138289451599121 1.6157381534576416 -5.558259010314941 18.299467086791992
0.4368700087070465 -6.798144429922104 -1.2695551849901676 11.450974464416504 65.39102172851562 31.690507888793945 -4.971182823181152 19.74191665649414 -4.526705265045166 4.976114273071289 -13.465822219848633 -0.8713952898979187 -10.093790054321289 18.849294662475586 -14.076525688171387 18.58563232421875 -33.35192108154297 -24.37822723388672 0.024094032123684883 -0.27792319655418396 0.4197261333465576 0.34934234619140625 -0.15141458809375763 -0.18068501353263855 -0.0240511242300272 -0.11857283860445023 0.09387805312871933 38.141212463378906 7.455589771270752 20.961475372314453 -27.123197555541992 -40.0218391418457 84.7654800415039 -0.4749056398868561 -25.10991096496582 -3.5470125675201416 0.10694800317287445 0.5707225203514099 -0.3649129867553711 0.7415771484375 0.7443517446517944 0.2239755541086197 0.22895091772079468 -0.2629050612449646 -0.0525624081492424 7.5983171463012695 5.505406379699707 0.3330778181552887 0.19418688118457794 0.4695371687412262 -0.11108677834272385 3.3108608722686768 1.3141670227050781 -0.01317352894693613 0.1923249214887619 0.23746885359287262 0.00788930244743824 10.066862106323242 0.9097313284873962 -0.161942720413208 -0.01751871593296528 -0.273730605840683 0.22115923464298248 2.5988426208496094 -1.2463475465774536 -0.3755677044391632 0.35055461525917053 -0.1982174515724182 0.0317704938352108 -31.11846923828125 58.40242385864258 -46.694915771484375 26.686708450317383 -43.94187927246094 -91.28662109375 0.37179818749427795 -17.698457717895508 2.3391618728637695 -0.09259817749261856 0.3138597011566162 0.011526735499501228 -0.013793488964438438 -0.09087754786014557 -0.11481474339962006 0.1924494504928589 0.10041894018650055 -0.1716316193342209 -7.795665740966797 5.470225811004639 -0.5286681652069092 -0.29756268858909607 0.015279939398169518 -0.17979779839515686 -2.9832611083984375 0.5273243188858032 -0.10531841963529587 -0.08838026225566864 0.19394010305404663 -0.0434734933078289 -10.289093017578125 1.0283567905426025 -0.4074244201183319 0.11057683080434799 0.054355207830667496 0.2523369789123535 -2.027395486831665 -1.1367583274841309 0.4986506402492523 -0.5172584652900696 0.3323743939399719 -0.17459696531295776 -77.288818359375 -64.6602783203125 -65.39395904541016 -49.91144561767578 88.2622299194336 51.02243423461914 -5.367743492126465 -12.389302253723145 -14.96349048614502 -0.3630024194717407 0.654948353767395 0.09396304190158844 42.642601013183594 -37.20576095581055 22.948171615600586 1.4165725708007812 65.87037658691406 -3.901475667953491 1.1459343433380127 -3.1213982105255127 18.23101043701172
0.46031177043914795 -6.946757435798645 -1.447440404444933 12.462677955627441 64.72232818603516 27.942073822021484 -5.805337905883789 19.606002807617188 -3.305659770965576 4.86419153213501 -13.386452674865723 -0.32620465755462646 -10.447868347167969 19.32806968688965 -14.337725639343262 19.229949951171875 -33.12841796875 -25.161916732788086 0.008625238202512264 0.044709544628858566 0.21213941276073456 0.4443812966346741 -0.030851108953356743 -0.29693692922592163 0.016309116035699844 -0.22415588796138763 0.04393712058663368 38.20962905883789 6.512436866760254 21.648488998413086 -27.22915267944336 -39.39434051513672 83.50894927978516 -0.6146993041038513 -23.789533615112305 -3.3843331336975098 0.08429568260908127 0.46248382329940796 -0.3905932605266571 0.44689950346946716 0.683636486530304 0.2511550784111023 0.10016576200723648 -0.13671115040779114 -0.1425420194864273 7.634488105773926 5.568348407745361 0.39648813009262085 0.015071950852870941 0.4280286431312561 -0.31195858120918274 3.4316699504852295 1.2530062198638916 -0.1836547702550888 0.25538840889930725 0.04555180296301842 -0.16688202321529388 10.14578628540039 1.0713329315185547 -0.0490289144217968 0.20907223224639893 -0.37409451603889465 0.1709119826555252 2.524265766143799 -1.0628063678741455 -0.38846102356910706 0.35744768381118774 -0.21679170429706573 0.0017246389761567116 -36.05378723144531 58.75786209106445 -40.07279586791992 26.424060821533203 -45.22597122192383 -93.78123474121094 0.3113885819911957 -17.96662712097168 2.2058217525482178 0.0949523001909256 0.16922712326049805 0.11218466609716415 -0.014560653828084469 -0.10304129868745804 0.07198673486709595 0.11497805267572403 0.15851406753063202 -0.25915777683258057 -7.82993221282959 5.592240810394287 -0.575871467590332 -0.24756987392902374 -0.08592072874307632 -0.11886229366064072 -3.150514841079712 0.47018149495124817 -0.020838139578700066 -0.3385894000530243 0.11155568808317184 0.04725350812077522 -10.174739837646484 1.0779285430908203 -0.3236820697784424 0.26832306385040283 0.11938454955816269 0.03405943512916565 -2.0078136920928955 -1.0638772249221802 0.40450701117515564 -0.3833654820919037 0.2508818507194519 -0.062155138701200485 -70.71449279785156 -64.12103271484375 -58.65279769897461 -28.07758331298828 87.4644775390625 28.996498107910156 -4.140240669250488 -11.579704284667969 -12.685050964355469 -0.3216785490512848 0.6335607171058655 0.23304449021816254 41.07036590576172 -37.16986083984375 20.340133666992188 1.29140305519104 65.76441955566406 -3.95636248588562 0.9196189641952515 -1.9846991300582886 18.797163009643555
